<svg width="20" height="20" viewBox="0 0 20 20" fill="none" xmlns="http://www.w3.org/2000/svg">
<path fill-rule="evenodd" clip-rule="evenodd" d="M10.3125 14.6875C10.3125 14.3423 10.5612 14.0625 10.8681 14.0625H14.7569C15.0638 14.0625 15.3125 14.3423 15.3125 14.6875C15.3125 15.0327 15.0638 15.3125 14.7569 15.3125H10.8681C10.5612 15.3125 10.3125 15.0327 10.3125 14.6875Z" fill="#3583FF"/>
<path fill-rule="evenodd" clip-rule="evenodd" d="M13.3336 4.98474C12.9373 4.58842 12.2948 4.58842 11.8984 4.98474L11.1393 5.74391L14.256 8.86104L15.0154 8.10169C15.4117 7.70537 15.4117 7.06281 15.0154 6.66649L13.3336 4.98474ZM13.4584 9.65866L10.3417 6.54153L4.98488 11.8983C4.79456 12.0886 4.68764 12.3468 4.68764 12.6159V14.2977C4.68764 14.8581 5.142 15.3125 5.70247 15.3125H7.38423C7.65338 15.3125 7.91151 15.2056 8.10183 15.0153L13.4584 9.65866Z" fill="#3583FF"/>
</svg>
